# WaveFront *.obj file (generated by CINEMA 4D)

mtllib ./chair.mtl

v 1.0836455821991 2.44278573989868 -1.07263612747192
v 1.0836455821991 2.44278573989868 1.07366120815277
v -1.08159554004669 2.44278573989868 1.07366120815277
v -1.08159554004669 2.44278573989868 -1.07263612747192
v 1.0836455821991 2.73718047142029 1.07366120815277
v 1.0836455821991 2.73718047142029 -1.07263612747192
v -1.08159554004669 2.73718047142029 -1.07263612747192
v -1.08159554004669 2.73718047142029 1.07366120815277
v -1.08159554004669 2.44278573989868 1.33846211433411
v 1.0836455821991 2.44278573989868 1.33846211433411
v 1.0836455821991 2.73718047142029 1.33846211433411
v -1.08159554004669 2.73718047142029 1.33846211433411
v 1.35078954696655 2.44278573989868 1.07366120815277
v 1.35078954696655 2.44278573989868 -1.07263612747192
v 1.35078954696655 2.73718047142029 -1.07263612747192
v 1.35078954696655 2.73718047142029 1.07366120815277
v 1.0836455821991 2.44278573989868 -1.33743703365326
v -1.08159554004669 2.44278573989868 -1.33743703365326
v -1.08159554004669 2.73718047142029 -1.33743703365326
v 1.0836455821991 2.73718047142029 -1.33743703365326
v -1.34872615337372 2.44278573989868 -1.07263612747192
v -1.34872615337372 2.44278573989868 1.07366120815277
v -1.34872615337372 2.73718047142029 1.07366120815277
v -1.34872615337372 2.73718047142029 -1.07263612747192
v 1.35078954696655 2.44278573989868 1.33846211433411
v 1.35078954696655 2.73718047142029 1.33846211433411
v -1.34872615337372 2.73718047142029 1.33846211433411
v -1.34872615337372 2.44278573989868 1.33846211433411
v -1.34872615337372 2.44278573989868 -1.33743703365326
v -1.34872615337372 2.73718047142029 -1.33743703365326
v 1.35078954696655 2.73718047142029 -1.33743703365326
v 1.35078954696655 2.44278573989868 -1.33743703365326
v 1.35078954696655 0.0694020614028 1.07366120815277
v 1.35078954696655 0.0694020614028 1.33846211433411
v 1.0836455821991 0.0694020614028 1.33846211433411
v 1.0836455821991 0.0694020614028 1.07366120815277
v 1.0836455821991 0.0694020614028 -1.07263612747192
v 1.0836455821991 0.0694020614028 -1.33743703365326
v 1.35078954696655 0.0694020614028 -1.33743703365326
v 1.35078954696655 0.0694020614028 -1.07263612747192
v -1.34872615337372 0.0694020614028 -1.07263612747192
v -1.34872615337372 0.0694020614028 -1.33743703365326
v -1.08159554004669 0.0694020614028 -1.33743703365326
v -1.08159554004669 0.0694020614028 -1.07263612747192
v -1.08159554004669 0.0694020614028 1.07366120815277
v -1.08159554004669 0.0694020614028 1.33846211433411
v -1.34872615337372 0.0694020614028 1.33846211433411
v -1.34872615337372 0.0694020614028 1.07366120815277
v -1.32026374340057 7.05645370483398 1.10188388824463
v -1.32026374340057 7.05645370483398 1.31023943424225
v -1.11005783081055 7.05645370483398 1.31023943424225
v -1.11005783081055 7.05645370483398 1.10188388824463
v -1.11005783081055 7.05645370483398 -1.10085880756378
v -1.11005783081055 7.05645370483398 -1.3092143535614
v -1.32026374340057 7.05645370483398 -1.3092143535614
v -1.32026374340057 7.05645370483398 -1.10085880756378
v -1.08159554004669 4.49148845672607 1.33846211433411
v -1.08159554004669 5.60607242584229 1.33846211433411
v -1.34872615337372 5.60607242584229 1.33846211433411
v -1.34872615337372 4.49148845672607 1.33846211433411
v -1.08159554004669 4.49148845672607 1.07366120815277
v -1.08159554004669 5.60607242584229 1.07366120815277
v -1.34872615337372 4.49148845672607 1.07366120815277
v -1.34872615337372 5.60607242584229 1.07366120815277
v -1.34872615337372 4.49148845672607 -1.07263612747192
v -1.34872615337372 5.60607242584229 -1.07263612747192
v -1.34872615337372 5.60607242584229 -1.33743703365326
v -1.34872615337372 4.49148845672607 -1.33743703365326
v -1.08159554004669 4.49148845672607 -1.07263612747192
v -1.08159554004669 5.60607242584229 -1.07263612747192
v -1.08159554004669 4.49148845672607 -1.33743703365326
v -1.08159554004669 5.60607242584229 -1.33743703365326
v -1.34872615337372 6.82098054885864 1.33846211433411
v -1.08159554004669 6.82098054885864 1.33846211433411
v -1.08159554004669 6.82098054885864 1.07366120815277
v -1.34872615337372 6.82098054885864 1.07366120815277
v -1.34872615337372 6.82098054885864 -1.33743703365326
v -1.34872615337372 6.82098054885864 -1.07263612747192
v -1.08159554004669 6.82098054885864 -1.07263612747192
v -1.08159554004669 6.82098054885864 -1.33743703365326
v -1.08159554004669 6.31045532226562 1.33846211433411
v -1.34872615337372 6.31045532226562 1.33846211433411
v -1.34872615337372 3.78711867332458 1.33846211433411
v -1.08159554004669 3.78711867332458 1.33846211433411
v -1.08159554004669 6.31045532226562 1.07366120815277
v -1.08159554004669 3.78711867332458 1.07366120815277
v -1.34872615337372 6.31045532226562 1.07366120815277
v -1.34872615337372 3.78711867332458 1.07366120815277
v -1.34872615337372 6.31045532226562 -1.07263612747192
v -1.34872615337372 6.31045532226562 -1.33743703365326
v -1.34872615337372 3.78711867332458 -1.33743703365326
v -1.34872615337372 3.78711867332458 -1.07263612747192
v -1.08159554004669 6.31045532226562 -1.07263612747192
v -1.08159554004669 3.78711867332458 -1.07263612747192
v -1.08159554004669 6.31045532226562 -1.33743703365326
v -1.08159554004669 3.78711867332458 -1.33743703365326
v -1.11465072631836 5.64028596878052 1.07366120815277
v -1.11465072631836 6.27624225616455 1.07366120815277
v -1.31567096710205 5.64028596878052 1.07366120815277
v -1.31567096710205 6.27624225616455 1.07366120815277
v -1.11465072631836 3.82133197784424 1.07366120815277
v -1.11465072631836 4.45728826522827 1.07366120815277
v -1.31567096710205 3.82133197784424 1.07366120815277
v -1.31567096710205 4.45728826522827 1.07366120815277
v -1.31567096710205 5.64028596878052 -1.07263612747192
v -1.31567096710205 6.27624225616455 -1.07263612747192
v -1.11465072631836 5.64028596878052 -1.07263612747192
v -1.11465072631836 6.27624225616455 -1.07263612747192
v -1.31567096710205 3.82133197784424 -1.07263612747192
v -1.31567096710205 4.45728826522827 -1.07263612747192
v -1.11465072631836 3.82133197784424 -1.07263612747192
v -1.11465072631836 4.45728826522827 -1.07263612747192
# 112 vertices

vn 0 -1 0
vn 0 0 0
vn 0 1 0
vn 0 0 1
vn 1 0 0
vn 0 0 -1
vn -1 0 0
vn 1 0 0
vn 1 0 0
vn 0 0.11900347471237 0.99289381504059
vn 0 0.11900347471237 0.99289381504059
vn 0 0.05960772559047 0.99822187423706
vn 0 0.05960772186518 0.99822187423706
vn 0.99277395009994 0.11999933421612 0
vn 0.99277395009994 0.11999933421612 0
vn 0.99819183349609 0.06010834872723 0
vn 0 0.11900348216295 -0.99289381504059
vn 0 0.11900347471237 -0.99289381504059
vn 0 0.05960772931576 -0.99822187423706
vn -0.9927738904953 0.11999982595444 0
vn -0.9927738904953 0.11999982595444 0
vn -0.99819183349609 0.06010859832168 0
vn -0.99819183349609 0.06010860204697 0
vn 0 0 1
vn 0 1 0
vn 0 -1 0
vn 0 -1 0
# 27 normals

vt -9.52600002288818 -4.84389972686768 0
vt 0 1 0
vt 10.52600002288818 -3.43939971923828 0
vt 10.52600002288818 10.52599906921387 0
vt 10.52600002288818 -9.52599906921387 0
vt -12 -3.43939971923828 0
vt 10.52600002288818 -12 0
vt 13 -4.84389972686768 0
vt 13 -9.52599906921387 0
vt 13 10.52599906921387 0
vt 10.52600002288818 13 0
vt 13 -12 0
vt -12 -4.84389972686768 0
vt 13 -3.43939971923828 0
vt 13 13 0
vt -9.52600002288818 -16.16669845581055 0
vt 13 -16.16669845581055 0
vt -12 -16.16669845581055 0
vt 10.78969955444336 17.16669845581055 0
vt -11.73630046844482 17.16669845581055 0
vt 12.73630046844482 17.16669845581055 0
vt 13 4.9298996925354 0
vt 13 10.24729919433594 0
vt -12 10.24729919433594 0
vt -12 4.9298996925354 0
vt 10.52600002288818 10.24729919433594 0
vt 10.52600002288818 4.9298996925354 0
vt -9.52600002288818 10.24729919433594 0
vt -9.52600002288818 4.9298996925354 0
vt -12 16.04329872131348 0
vt 13 16.04329872131348 0
vt 10.52600002288818 16.04329872131348 0
vt 13 13.60770034790039 0
vt -12 13.60770034790039 0
vt -12 1.56949996948242 0
vt 13 1.56949996948242 0
vt 10.52600002288818 13.60770034790039 0
vt 10.52600002288818 1.56949996948242 0
vt -9.52600002288818 13.60770034790039 0
vt -9.52600002288818 1.56949996948242 0
vt -9.52600002288818 13.44439888000488 0
vt 10.832200050354 -9.52599906921387 0
vt 10.52600002288818 10.41049957275391 0
vt 10.52600002288818 13.44439888000488 0
vt -9.52600002288818 4.76669979095459 0
vt -9.52600002288818 1.73269999027252 0
vt 10.52600002288818 1.73269999027252 0
vt -11.69379997253418 -9.52599906921387 0
vt -9.52600002288818 10.41049957275391 0
vt 10.832200050354 10.52599906921387 0
vt -11.69379997253418 10.52599906921387 0
vt 10.52600002288818 4.76669979095459 0
# 52 texture coordinates

o Box001
usemtl wire_135059008
f 2/1/1 3/1/1 4/1/1
f 1/1/1 2/1/1 4/1/1
f 6/4/3 7/3/3 8/3/3
f 5/5/3 6/4/3 8/3/3
f 10/8/4 11/7/4 12/6/4
f 9/1/4 10/8/4 12/6/4
f 14/8/5 15/10/5 16/9/5
f 13/1/5 14/8/5 16/9/5
f 18/8/6 19/3/6 20/11/6
f 17/1/6 18/8/6 20/11/6
f 22/8/7 23/3/7 24/6/7
f 21/1/7 22/8/7 24/6/7
f 13/1/1 2/1/1 1/1/1
f 14/8/1 13/1/1 1/1/1
f 21/1/1 4/1/1 3/1/1
f 22/8/1 21/1/1 3/1/1
f 15/10/3 6/4/3 5/5/3
f 16/9/3 15/10/3 5/5/3
f 23/3/3 8/3/3 7/3/3
f 24/6/3 23/3/3 7/3/3
f 25/13/4 26/12/4 11/7/4
f 10/8/4 25/13/4 11/7/4
f 27/14/4 28/13/4 9/1/4
f 12/6/4 27/14/4 9/1/4
f 29/13/6 30/14/6 19/3/6
f 18/8/6 29/13/6 19/3/6
f 31/15/6 32/13/6 17/1/6
f 20/11/6 31/15/6 17/1/6
f 10/8/1 9/1/1 3/1/1
f 2/1/1 10/8/1 3/1/1
f 18/8/1 17/1/1 1/1/1
f 4/1/1 18/8/1 1/1/1
f 20/11/3 19/3/3 7/3/3
f 6/4/3 20/11/3 7/3/3
f 12/6/3 11/7/3 5/5/3
f 8/3/3 12/6/3 5/5/3
f 32/13/5 31/15/8 15/10/5
f 14/8/5 32/13/5 15/10/5
f 26/12/5 25/13/5 13/1/5
f 16/9/5 26/12/5 13/1/5
f 28/13/7 27/14/7 23/3/7
f 22/8/7 28/13/7 23/3/7
f 30/14/7 29/13/7 21/1/7
f 24/6/7 30/14/7 21/1/7
f 34/18/1 35/17/1 36/16/1
f 33/16/1 34/18/1 36/16/1
f 38/16/1 39/18/1 40/17/1
f 37/16/1 38/16/1 40/17/1
f 42/18/1 43/17/1 44/16/1
f 41/16/1 42/18/1 44/16/1
f 46/16/1 47/18/1 48/17/1
f 45/16/1 46/16/1 48/17/1
f 31/15/3 20/11/3 6/4/3
f 15/10/3 31/15/3 6/4/3
f 11/7/3 26/12/3 16/9/3
f 5/5/3 11/7/3 16/9/3
f 50/21/3 51/20/3 52/19/3
f 49/19/3 50/21/3 52/19/3
f 54/19/3 55/21/3 56/20/3
f 53/19/3 54/19/3 56/20/3
f 10/8/4 35/17/4 34/18/4
f 25/13/4 10/8/4 34/18/4
f 2/1/7 36/16/7 35/17/7
f 10/8/7 2/1/7 35/17/7
f 13/1/6 33/16/6 36/16/6
f 2/1/6 13/1/6 36/16/6
f 25/13/5 34/18/5 33/16/5
f 13/1/5 25/13/5 33/16/5
f 14/8/5 40/17/5 39/18/5
f 32/13/5 14/8/5 39/18/5
f 1/1/4 37/16/4 40/17/4
f 14/8/4 1/1/4 40/17/4
f 17/1/7 38/16/7 37/16/7
f 1/1/7 17/1/7 37/16/7
f 32/13/6 39/18/6 38/16/6
f 17/1/6 32/13/6 38/16/6
f 18/8/6 43/17/6 42/18/6
f 29/13/6 18/8/6 42/18/6
f 4/1/5 44/16/5 43/17/5
f 18/8/9 4/1/5 43/17/5
f 21/1/4 41/16/4 44/16/4
f 4/1/4 21/1/4 44/16/4
f 29/13/7 42/18/7 41/16/7
f 21/1/7 29/13/7 41/16/7
f 22/8/7 48/17/7 47/18/7
f 28/13/7 22/8/7 47/18/7
f 3/1/6 45/16/6 48/17/6
f 22/8/6 3/1/6 48/17/6
f 9/1/5 46/16/5 45/16/5
f 3/1/9 9/1/5 45/16/5
f 28/13/4 47/18/4 46/16/4
f 9/1/4 28/13/4 46/16/4
f 58/24/4 59/23/4 60/22/4
f 57/25/4 58/24/4 60/22/4
f 62/26/5 58/24/5 57/25/5
f 61/27/5 62/26/5 57/25/5
f 64/23/6 62/26/6 61/27/6
f 63/22/6 64/23/6 61/27/6
f 59/23/7 64/23/7 63/22/7
f 60/22/7 59/23/7 63/22/7
f 66/24/7 67/23/7 68/22/7
f 65/25/7 66/24/7 68/22/7
f 70/28/4 66/24/4 65/25/4
f 69/29/4 70/28/4 65/25/4
f 72/26/5 70/28/5 69/29/5
f 71/27/5 72/26/5 69/29/5
f 67/23/6 72/26/6 71/27/6
f 68/22/6 67/23/6 71/27/6
f 74/30/12 51/20/11 50/21/10
f 73/31/13 74/30/12 50/21/10
f 75/32/16 52/19/15 51/20/14
f 74/30/16 75/32/16 51/20/14
f 76/32/19 49/19/18 52/19/17
f 75/32/19 76/32/19 52/19/17
f 73/31/22 50/21/21 49/19/20
f 76/32/23 73/31/22 49/19/20
f 78/30/22 56/20/21 55/21/20
f 77/31/23 78/30/22 55/21/20
f 79/32/12 53/19/11 56/20/10
f 78/30/13 79/32/12 56/20/10
f 80/32/16 54/19/15 53/19/14
f 79/32/16 80/32/16 53/19/14
f 77/31/19 55/21/18 54/19/17
f 80/32/19 77/31/19 54/19/17
f 74/30/12 73/31/13 82/33/4
f 81/34/4 74/30/12 82/33/4
f 81/34/4 82/33/4 59/23/4
f 58/24/4 81/34/4 59/23/4
f 27/14/4 12/6/4 84/35/4
f 83/36/4 27/14/4 84/35/4
f 83/36/4 84/35/4 57/25/4
f 60/22/4 83/36/4 57/25/4
f 75/32/16 74/30/16 81/34/5
f 85/37/5 75/32/16 81/34/5
f 85/37/5 81/34/5 58/24/5
f 62/26/5 85/37/5 58/24/5
f 12/6/5 8/3/5 86/38/5
f 84/35/5 12/6/5 86/38/5
f 84/35/5 86/38/5 61/27/5
f 57/25/5 84/35/5 61/27/5
f 76/32/19 75/32/19 85/37/6
f 87/33/6 76/32/19 85/37/6
f 8/3/6 23/3/6 88/36/6
f 86/38/6 8/3/6 88/36/6
f 73/31/22 76/32/23 87/33/7
f 82/33/7 73/31/22 87/33/7
f 82/33/7 87/33/7 64/23/7
f 59/23/7 82/33/7 64/23/7
f 23/3/7 27/14/7 83/36/7
f 88/36/7 23/3/7 83/36/7
f 88/36/7 83/36/7 60/22/7
f 63/22/7 88/36/7 60/22/7
f 78/30/22 77/31/23 90/33/7
f 89/34/7 78/30/22 90/33/7
f 89/34/7 90/33/7 67/23/7
f 66/24/7 89/34/7 67/23/7
f 30/14/7 24/6/7 92/35/7
f 91/36/7 30/14/7 92/35/7
f 91/36/7 92/35/7 65/25/7
f 68/22/7 91/36/7 65/25/7
f 79/32/12 78/30/13 89/34/4
f 93/39/4 79/32/12 89/34/4
f 24/6/4 7/3/24 94/40/4
f 92/35/4 24/6/4 94/40/4
f 80/32/16 79/32/16 93/39/5
f 95/37/5 80/32/16 93/39/5
f 95/37/5 93/39/5 70/28/5
f 72/26/5 95/37/5 70/28/5
f 7/3/5 19/3/5 96/38/5
f 94/40/5 7/3/5 96/38/5
f 94/40/5 96/38/5 71/27/5
f 69/29/5 94/40/5 71/27/5
f 77/31/19 80/32/19 95/37/6
f 90/33/6 77/31/19 95/37/6
f 90/33/6 95/37/6 72/26/6
f 67/23/6 90/33/6 72/26/6
f 19/3/6 30/14/6 91/36/6
f 96/38/6 19/3/6 91/36/6
f 96/38/6 91/36/6 68/22/6
f 71/27/6 96/38/6 68/22/6
f 62/26/6 97/42/6 98/41/6
f 85/37/6 62/26/6 98/41/6
f 64/23/6 99/43/6 97/42/6
f 62/26/6 64/23/6 97/42/6
f 87/33/6 100/44/6 99/43/6
f 64/23/6 87/33/6 99/43/6
f 85/37/6 98/41/6 100/44/6
f 87/33/6 85/37/6 100/44/6
f 86/38/6 101/46/6 102/45/6
f 61/27/6 86/38/6 102/45/6
f 88/36/6 103/47/6 101/46/6
f 86/38/6 88/36/6 101/46/6
f 63/22/6 104/48/6 103/47/6
f 88/36/6 63/22/6 103/47/6
f 61/27/6 102/45/6 104/48/6
f 63/22/6 61/27/6 104/48/6
f 66/24/4 105/49/4 106/41/4
f 89/34/4 66/24/4 106/41/4
f 70/28/4 107/50/4 105/49/4
f 66/24/4 70/28/4 105/49/4
f 93/39/4 108/44/4 107/50/4
f 70/28/4 93/39/4 107/50/4
f 89/34/4 106/41/4 108/44/4
f 93/39/4 89/34/4 108/44/4
f 92/35/4 109/46/4 110/51/4
f 65/25/4 92/35/4 110/51/4
f 94/40/4 111/47/4 109/46/4
f 92/35/4 94/40/4 109/46/4
f 69/29/4 112/52/4 111/47/4
f 94/40/4 69/29/4 111/47/4
f 65/25/4 110/51/4 112/52/4
f 69/29/4 65/25/4 112/52/4
f 98/41/3 108/44/25 106/41/3
f 100/44/3 98/41/3 106/41/3
f 97/42/5 107/50/5 108/44/5
f 98/41/5 97/42/5 108/44/5
f 99/43/1 105/49/26 107/50/1
f 97/42/27 99/43/1 107/50/1
f 100/44/7 106/41/7 105/49/7
f 99/43/7 100/44/7 105/49/7
f 103/47/1 109/46/26 111/47/1
f 101/46/27 103/47/1 111/47/1
f 104/48/7 110/51/7 109/46/7
f 103/47/7 104/48/7 109/46/7
f 102/45/3 112/52/25 110/51/3
f 104/48/3 102/45/3 110/51/3
f 101/46/5 111/47/5 112/52/5
f 102/45/5 101/46/5 112/52/5

